<svg xmlns="http://www.w3.org/2000/svg" width="62" height="74" viewBox="0 0 62 74" fill="none"><g clip-path="url(#clip0_6_16865)"><path d="M62 58.6C61.4 55 55.8 52.2 52.5 50.8C57.5 45.4 60.6 38.2 60.6 30.3C60.5 13.6 47 0 30.3 0C13.6 0 0 13.6 0 30.3C0 42.2 7 52.6 17 57.5C17 57.5 17 57.5 17.1 57.5C21.1 59.4 25.5 60.6 30.3 60.6C37.9 60.6 44.8 57.8 50.2 53.1C53.9 54.5 58.8 57.1 59.1 59.1C59.1 59.3 59.2 59.8 58.2 60.7C54.4 63.7 49.1 63.6 43.9 63.4C43.3 63.4 42.6 63.4 42 63.4C39.2 63.4 36.3 63.1 33.5 62.8C29 62.4 24.3 61.9 19.6 62.4L19 62.5C16.9 62.7 14.3 62.9 13 64.7C12.3 65.6 12.1 66.7 12.4 68C13.1 71.5 18.6 73 20.1 73.2C20.2 73.2 20.2 73.2 20.3 73.2C21 73.2 21.7 72.7 21.8 71.9C21.9 71.1 21.3 70.3 20.5 70.2C18.4 69.9 15.5 68.5 15.3 67.4C15.2 66.7 15.3 66.5 15.4 66.4C15.9 65.7 18 65.5 19.3 65.4L20 65.3C24.4 64.9 28.9 65.3 33.3 65.7C36.2 66 39.1 66.2 42 66.3C42.6 66.3 43.2 66.3 43.9 66.3C49.3 66.5 55.5 66.6 60.1 62.9C62 61.4 62.2 59.7 62 58.6ZM22.8 56.5C27.7 54.9 34 51.7 35.9 47.9C37.3 48.1 38.7 48.3 40.1 48.4C38.8 51.2 34.7 55.5 30 57.6C27.5 57.5 25.1 57.2 22.8 56.5ZM16.1 49.1C13.8 47.2 11.3 42.8 10.5 39.7C11.9 40.4 13.3 41.2 14.9 41.8C14.5 44.4 16.5 47.3 17.9 48.9C17.4 49 16.8 49.2 16.3 49.3C16.2 49.3 16.1 49.2 16.1 49.1ZM3.2 26.8C10.3 34.2 28.9 42.1 46.9 42.1C49.7 42.1 52.4 41.9 55.2 41.5C54.6 42.8 53.9 44 53.2 45.2C34.7 47.8 9.5 39 3 30.2C3 29.1 3.1 28 3.2 26.8ZM5 20C11.9 27.5 30.7 35.6 49 35.6C51.7 35.6 54.5 35.4 57.2 35C57 36.1 56.8 37.2 56.4 38.3C35.9 42.1 10.1 31.9 4 23.2C4 23.2 3.9 23.2 3.9 23.1C4.2 22.1 4.6 21 5 20ZM8.7 13.5C11.8 17 17.2 20.4 23.7 23.1C31.7 26.3 41.3 28.5 50.7 28.5C52.9 28.5 55.1 28.4 57.3 28.1C57.4 28.8 57.4 29.5 57.4 30.2C57.4 30.8 57.3 31.4 57.3 31.9C37.3 35.2 12.6 25.5 6.2 17C7.1 15.8 7.9 14.6 8.7 13.5ZM35.7 3.6C35.8 3.6 35.8 3.6 35.8 3.6C35.9 3.6 36 3.7 36.2 3.7C29.1 6.1 20.4 12.1 18 17C17.1 16.5 16.2 15.9 15.3 15.3C18.7 8.9 28.8 3.8 35.7 3.6ZM42.6 5.9C36.2 8.8 26.7 15.8 23.8 19.9C22.7 19.4 21.6 18.9 20.6 18.4C22.7 14 33.7 6.4 40.9 5.4C41 5.4 41.2 5.3 41.3 5.3C41.7 5.5 42.2 5.7 42.6 5.9ZM49.6 25.6C48.1 25.6 46.6 25.5 45.1 25.3C45 20.8 40.9 13.7 39 11.2C39.8 10.7 40.6 10.3 41.4 9.8C45.1 13 48.9 18.6 49.6 25.6ZM31 16.8C32.3 18.5 33.4 21.4 33.8 23.3C31.3 22.6 28.8 21.9 26.5 21C27.5 19.9 29.1 18.4 31 16.8ZM36.9 24.1C36.8 21.5 35 17.4 33.3 15.1C34.3 14.3 35.4 13.6 36.5 12.8C36.5 12.8 36.5 12.8 36.5 12.9C38.4 15.3 41.7 21.6 42 25C40.4 24.7 38.6 24.4 36.9 24.1ZM21 47.9C19.7 46.6 18.1 44.6 17.8 43.1C20.1 44 22.6 44.8 25.1 45.6C24 46.5 22.5 47.3 21 47.9ZM28.3 46.4C29.8 46.8 31.3 47.1 32.8 47.4C30.2 50.9 21.5 54.5 18 54.7C16.8 54.1 15.7 53.4 14.6 52.7C18.9 52 25.3 50.2 28.3 46.4ZM43.2 48.6C44.2 48.6 45.1 48.7 46 48.7C47.5 48.7 49 48.6 50.5 48.5C46.9 52.5 42.1 55.5 36.7 56.8C40 54.1 42.4 51 43.2 48.6ZM57.1 25.2C55.6 25.4 54.1 25.5 52.6 25.5C51.9 18.1 48.2 12.1 44.3 8.3C44.9 8.1 45.4 7.9 45.9 7.7C51.6 11.9 55.8 18.1 57.1 25.2ZM24.8 3.5C19.9 5.8 15.3 9.4 12.9 13.5C12 12.8 11.3 12 10.7 11.2C14.4 7.4 19.3 4.6 24.8 3.5ZM3.4 34.9C4.5 35.9 5.9 36.9 7.3 37.8C7.2 41.3 9.8 46.6 12.6 49.8C12 49.8 11.5 49.8 11.2 49.8C7.2 45.9 4.4 40.7 3.4 34.9Z" fill="#B5C7D3"></path></g><defs><clipPath id="clip0_6_16865"><rect width="62" height="73.1" fill="white"></rect></clipPath></defs></svg>